HIERARCHY
ROOT Hips
{
	OFFSET 0.00000 0.00000 0.00000
	CHANNELS 6 Xposition Yposition Zposition Zrotation Yrotation Xrotation 
	JOINT LHipJoint
	{
		OFFSET 0 0 0
		CHANNELS 3 Zrotation Yrotation Xrotation
		JOINT LeftHip
		{
			OFFSET 1.41496 -1.84582 0.78394
			CHANNELS 3 Zrotation Yrotation Xrotation
			JOINT LeftKnee
			{
				OFFSET 2.58040 -7.08960 0.00000
				CHANNELS 3 Zrotation Yrotation Xrotation
				JOINT LeftAnkle
				{
					OFFSET 2.64719 -7.27309 0.00000
					CHANNELS 3 Zrotation Yrotation Xrotation
					JOINT LeftToe
					{
						OFFSET 0.20718 -0.56921 2.20259
						CHANNELS 3 Zrotation Yrotation Xrotation
						End Site
						{
							OFFSET 0.00000 -0.00000 1.14243
						}
					}
				}
			}
		}
	}
	JOINT RHipJoint
	{
		OFFSET 0 0 0
		CHANNELS 3 Zrotation Yrotation Xrotation
		JOINT RightHip
		{
			OFFSET -1.40551 -1.84582 0.78394
			CHANNELS 3 Zrotation Yrotation Xrotation
			JOINT RightKnee
			{
				OFFSET -2.56572 -7.04926 0.00000
				CHANNELS 3 Zrotation Yrotation Xrotation
				JOINT RightAnkle
				{
					OFFSET -2.57974 -7.08778 0.00000
					CHANNELS 3 Zrotation Yrotation Xrotation
					JOINT RightToe
					{
						OFFSET -0.26704 -0.73369 2.20815
						CHANNELS 3 Zrotation Yrotation Xrotation
						End Site
						{
							OFFSET -0.00000 -0.00000 1.16246
						}
					}
				}
			}
		}
	}
	JOINT lowerback
	{
		OFFSET 0 0 0
		CHANNELS 3 Zrotation Yrotation Xrotation
		JOINT Chest
		{
			OFFSET -0.04690 2.05196 -0.07017
			CHANNELS 3 Zrotation Yrotation Xrotation
			JOINT Chest2
			{
				OFFSET 0.04085 2.05260 0.00800
				CHANNELS 3 Zrotation Yrotation Xrotation
				JOINT lowerneck
				{
					OFFSET 0 0 0
					CHANNELS 3 Zrotation Yrotation Xrotation
					JOINT Neck
					{
						OFFSET -0.03582 1.80995 0.19301
						CHANNELS 3 Zrotation Yrotation Xrotation
						JOINT Head
						{
							OFFSET 0.00952 1.80195 -0.36389
							CHANNELS 3 Zrotation Yrotation Xrotation
							End Site
							{
								OFFSET 0.00392 1.85062 -0.14494
							}
						}
					}
				}
				JOINT LeftCollar
				{
					OFFSET 0 0 0
					CHANNELS 3 Zrotation Yrotation Xrotation
					JOINT LeftShoulder
					{
						OFFSET 3.55224 1.39726 -0.13667
CHANNELS 3 Zrotation Xrotation Yrotation
						JOINT LeftElbow
						{
OFFSET 0 -5.145070 -0.000000
CHANNELS 3 Zrotation Xrotation Yrotation
							JOINT LeftWrist
							{
OFFSET 0 -3.506460 0.000000
CHANNELS 3 Zrotation Xrotation Yrotation
								JOINT lhand
								{
									OFFSET 0 0 0
CHANNELS 3 Zrotation Xrotation Yrotation
									JOINT LFingers
									{
OFFSET 0 -0.629970 0.000000
CHANNELS 3 Zrotation Xrotation Yrotation
										End Site
										{
OFFSET 0 -0.507900 0.000000
										}
									}
								}
								JOINT LThumb
								{
OFFSET 0 0.000000 0.000000
CHANNELS 3 Zrotation Xrotation Yrotation
									End Site
									{
OFFSET 0 -0.515650 0.515650
									}
								}
							}
						}
					}
				}
				JOINT RightCollar
				{
					OFFSET 0 0 0
					CHANNELS 3 Zrotation Yrotation Xrotation
					JOINT RightShoulder
					{
						OFFSET -3.06467 1.61290 -0.28813
CHANNELS 3 Zrotation Xrotation Yrotation
						JOINT RightElbow
						{
OFFSET 0 -5.232000 -0.000000
CHANNELS 3 Zrotation Xrotation Yrotation
							JOINT RightWrist
							{
OFFSET 0 -3.656410 0.000000
CHANNELS 3 Zrotation Xrotation Yrotation
								JOINT rhand
								{
									OFFSET 0 0 0
CHANNELS 3 Zrotation Xrotation Yrotation
									JOINT RFingers
									{
OFFSET 0 -0.656810 0.000000
CHANNELS 3 Zrotation Xrotation Yrotation
										End Site
										{
OFFSET 0 -0.529530 0.000000
										}
									}
								}
								JOINT RThumb
								{
OFFSET 0 0.000000 0.000000
CHANNELS 3 Zrotation Xrotation Yrotation
									End Site
									{
OFFSET 0 -0.537620 0.537620
									}
								}
							}
						}
					}
				}
			}
		}
	}
}
MOTION
Frames: 7
Frame Time: 0.008333333333333333
0.175536 17.679075 -22.826765 -183.010628 18.885639 -183.670100 0.000000 0.000000 0.000000 -17.482567 -10.106077 -22.308820 4.387042 12.658363 38.102850 0.149414 -7.056890 -7.911597 0.001700 -0.269680 -0.740899 0.000000 0.000000 0.000000 14.551619 -1.647785 -15.747888 -4.493665 -12.789298 38.585710 -0.759078 -2.860374 -17.735894 -2.507603 9.851705 -28.497735 -0.387090 -0.919417 10.290387 2.787509 -1.000034 0.313225 3.281545 -0.400345 -5.392525 2.887878 3.730762 -15.635970 -7.336137 6.196637 16.804183 -2.175859 2.532718 8.115893 0.000000 0.000000 0.000000 -1.380411 18.600750 2.097697 26.695505 -37.887021 9.311605 14.060074 14.385721 -1.444700 0.000000 0.000000 0.000000 -7.125000 0.000000 0.000000 -9.977334 31.372341 -3.369465 0.000000 0.000000 0.000000 -5.826758 20.025815 -11.643030 -25.969041 -37.176462 -8.869604 -24.646388 -0.048292 13.059583 0.000000 0.000000 0.000000 7.125000 0.000000 0.000000 2.477366 44.282588 0.043593
0.181870 17.687566 -22.852138 -182.951706 19.078847 -183.487508 0.000000 0.000000 0.000000 -17.386430 -10.110653 -22.347872 4.383146 12.653548 38.085149 0.160961 -6.921973 -8.055503 0.001740 -0.271715 -0.746507 0.000000 0.000000 0.000000 14.665866 -1.438826 -15.508737 -4.389185 -12.660406 38.111154 -0.761736 -2.913894 -17.792487 -2.502549 9.842576 -28.468332 -0.287335 -0.850657 10.249902 2.774021 -0.899332 0.268236 3.196046 -0.353680 -5.424802 2.895464 3.728423 -15.591047 -7.342768 6.204126 16.873561 -2.178974 2.537552 8.131851 0.000000 0.000000 0.000000 -1.606847 18.503867 1.967211 26.518506 -37.715817 9.203155 14.066732 14.536311 -1.318117 0.000000 0.000000 0.000000 -7.125000 0.000000 0.000000 -9.957689 31.244000 -3.393822 0.000000 0.000000 0.000000 -6.002492 19.914378 -11.317611 -26.429914 -37.627716 -9.149831 -24.744592 -0.202665 12.834679 0.000000 0.000000 0.000000 7.125000 0.000000 0.000000 2.355367 44.049772 0.054782
0.187983 17.696076 -22.877130 -182.888177 19.277945 -183.303513 0.000000 0.000000 0.000000 -17.284783 -10.115088 -22.388387 4.379311 12.648813 38.067649 0.172468 -6.782389 -8.197305 0.001800 -0.274592 -0.754478 0.000000 0.000000 0.000000 14.782076 -1.219710 -15.283328 -4.290475 -12.537243 37.659857 -0.763894 -2.953091 -17.835879 -2.497215 9.832927 -28.437286 -0.182691 -0.780894 10.213103 2.761435 -0.796486 0.222926 3.108544 -0.306033 -5.459503 2.904874 3.726805 -15.551012 -7.349780 6.212277 16.944702 -2.182390 2.542586 8.149351 0.000000 0.000000 0.000000 -1.830278 18.403779 1.840752 26.347576 -37.549862 9.098691 14.071586 14.673318 -1.200228 0.000000 0.000000 0.000000 -7.125000 0.000000 0.000000 -9.940548 31.124433 -3.416836 0.000000 0.000000 0.000000 -6.174621 19.796129 -10.999785 -26.888523 -38.072661 -9.430319 -24.845220 -0.355075 12.608131 0.000000 0.000000 0.000000 7.125000 0.000000 0.000000 2.231545 43.815253 0.065271
0.192961 17.704886 -22.901226 -182.839589 19.479853 -183.120713 0.000000 0.000000 0.000000 -17.203397 -10.131954 -22.428065 4.374280 12.642465 38.044470 0.183796 -6.624157 -8.332772 0.001920 -0.280995 -0.772071 0.000000 0.000000 0.000000 14.866551 -1.004599 -15.117566 -4.209874 -12.434102 37.286196 -0.765095 -2.942920 -17.843590 -2.491104 9.821783 -28.401460 -0.083487 -0.709279 10.179650 2.743888 -0.692326 0.173911 3.018890 -0.257848 -5.499225 2.914164 3.724290 -15.514562 -7.357689 6.219651 17.017695 -2.186106 2.547202 8.168167 0.000000 0.000000 0.000000 -2.047433 18.299327 1.723617 26.191767 -37.397175 9.003969 14.069030 14.772792 -1.104812 0.000000 0.000000 0.000000 -7.125000 0.000000 0.000000 -9.932073 31.027518 -3.437280 0.000000 0.000000 0.000000 -6.335632 19.665749 -10.682497 -27.349821 -38.508341 -9.717082 -25.020436 -0.541971 12.425990 0.000000 0.000000 0.000000 7.125000 0.000000 0.000000 2.047478 43.636975 0.068348
0.197620 17.713814 -22.925063 -182.791831 19.683836 -182.938902 0.000000 0.000000 0.000000 -17.124176 -10.151692 -22.465436 4.368635 12.635383 38.018558 0.195064 -6.459136 -8.466665 0.002020 -0.287762 -0.790657 0.000000 0.000000 0.000000 14.945795 -0.791823 -14.970054 -4.134761 -12.337399 36.936668 -0.765723 -2.924574 -17.840702 -2.484380 9.809513 -28.361995 0.016313 -0.637462 10.148453 2.726072 -0.587768 0.125221 2.928599 -0.209524 -5.539670 2.924281 3.722344 -15.483717 -7.365975 6.227791 17.093058 -2.189940 2.551974 8.188877 0.000000 0.000000 0.000000 -2.262956 18.191416 1.611491 26.039724 -37.247756 8.911718 14.063360 14.858924 -1.016038 0.000000 0.000000 0.000000 -7.125000 0.000000 0.000000 -9.926774 30.937285 -3.457225 0.000000 0.000000 0.000000 -6.494544 19.529345 -10.371318 -27.807483 -38.936884 -10.003015 -25.191172 -0.728332 12.245391 0.000000 0.000000 0.000000 7.125000 0.000000 0.000000 1.868267 43.459503 0.070715
0.201635 17.722984 -22.948377 -182.745683 19.892044 -182.759102 0.000000 0.000000 0.000000 -17.049259 -10.177224 -22.498100 4.361742 12.626813 37.987093 0.206212 -6.280356 -8.597379 0.002080 -0.295254 -0.811214 0.000000 0.000000 0.000000 15.014539 -0.583795 -14.859478 -4.070752 -12.253733 36.635983 -0.765183 -2.889813 -17.816369 -2.476409 9.794949 -28.315127 0.117361 -0.565243 10.121843 2.707732 -0.482406 0.077214 2.837021 -0.160918 -5.581563 2.936088 3.721565 -15.464299 -7.375025 6.237501 17.173249 -2.194015 2.557069 8.213449 0.000000 0.000000 0.000000 -2.475179 18.076464 1.509545 25.895285 -37.104935 8.824455 14.051373 14.918018 -0.940702 0.000000 0.000000 0.000000 -7.125000 0.000000 0.000000 -9.927913 30.860570 -3.476164 0.000000 0.000000 0.000000 -6.649232 19.380711 -10.072611 -28.257701 -39.350903 -10.287218 -25.352332 -0.913406 12.067689 0.000000 0.000000 0.000000 7.125000 0.000000 0.000000 1.699315 43.283359 0.071674
0.205097 17.732312 -22.971375 -182.703886 20.101914 -182.582072 0.000000 0.000000 0.000000 -16.982572 -10.208611 -22.524710 4.353584 12.616620 37.949772 0.217359 -6.088122 -8.727183 0.002219 -0.303854 -0.834818 0.000000 0.000000 0.000000 15.070661 -0.390999 -14.782374 -4.015290 -12.180511 36.373954 -0.763576 -2.837128 -17.771066 -2.466341 9.776468 -28.255836 0.216746 -0.492588 10.096024 2.688918 -0.376568 0.030355 2.745760 -0.112114 -5.622190 2.943661 3.720667 -15.452913 -7.379801 6.247328 17.257000 -2.195796 2.562084 8.240356 0.000000 0.000000 0.000000 -2.684752 17.957239 1.412979 25.756781 -36.967297 8.741069 14.039347 14.952225 -0.874426 0.000000 0.000000 0.000000 -7.125000 0.000000 0.000000 -9.930080 30.793074 -3.493243 0.000000 0.000000 0.000000 -6.800675 19.222106 -9.785654 -28.700046 -39.750717 -10.569087 -25.499091 -1.100577 11.893192 0.000000 0.000000 0.000000 7.125000 0.000000 0.000000 1.544884 43.108640 0.071683
